<?xml version="1.0" encoding="utf-8"?>
<!-- Generator: Adobe Illustrator 25.2.0, SVG Export Plug-In . SVG Version: 6.00 Build 0)  -->
<svg version="1.1" id="Ebene_1" xmlns="http://www.w3.org/2000/svg" xmlns:xlink="http://www.w3.org/1999/xlink" x="0px" y="0px"
	 viewBox="0 0 16 16" style="enable-background:new 0 0 16 16;" xml:space="preserve">
<style type="text/css">
	.st0{fill:#9DA3A8;}
</style>
<g>
	<g id="simplified-e_3_">
		<path class="st0" d="M8,0.17C3.68,0.17,0.17,3.68,0.17,8S3.68,15.83,8,15.83s7.83-3.51,7.83-7.83S12.32,0.17,8,0.17z M7.94,12.91
			C5.21,12.91,3,10.7,3,7.97c0-2.72,2.21-4.93,4.93-4.93s4.93,2.21,4.93,4.93C12.87,10.7,10.66,12.91,7.94,12.91z"/>
		<path class="st0" d="M10.08,9.52c-0.72,1.06-1.72,2.03-3.06,2.03c-1.42,0-2.25-0.89-2.25-2.32c0-2.32,1.72-4.6,4.13-4.6
			c0.81,0,1.9,0.33,1.9,1.31c0,1.76-2.76,2.35-4.12,2.7C6.65,8.93,6.6,9.23,6.6,9.52c0,0.61,0.33,1.17,1,1.17
			c0.87,0,1.58-0.84,2.09-1.47L10.08,9.52z M9.33,5.73c0-0.36-0.2-0.64-0.58-0.64c-1.12,0-1.7,2.18-1.92,3.04
			C7.88,7.82,9.33,6.97,9.33,5.73z"/>
	</g>
</g>
</svg>
